<?xml version="1.0" standalone="no"?>
<!DOCTYPE svg PUBLIC "-//W3C//DTD SVG 20010904//EN"
 "http://www.w3.org/TR/2001/REC-SVG-20010904/DTD/svg10.dtd">
<svg version="1.0" xmlns="http://www.w3.org/2000/svg"
 width="256.000000pt" height="256.000000pt" viewBox="0 0 256.000000 256.000000"
 preserveAspectRatio="xMidYMid meet">
<metadata>
Created by potrace 1.11, written by Peter Selinger 2001-2013
</metadata>
<g transform="translate(0.000000,256.000000) scale(0.100000,-0.100000)"
fill="#000000" stroke="none">
<path d="M172 1550 c-112 -56 -167 -145 -167 -270 0 -125 55 -214 167 -270
154 -76 340 -9 411 149 29 63 29 179 0 242 -30 66 -76 114 -145 149 -51 25
-73 30 -133 30 -60 0 -82 -5 -133 -30z"/>
<path d="M1164 1559 c-67 -26 -138 -97 -164 -166 -76 -203 66 -413 280 -413
214 0 356 210 280 413 -56 150 -239 227 -396 166z"/>
<path d="M2122 1550 c-112 -56 -166 -145 -166 -270 0 -125 54 -214 166 -270
154 -76 339 -9 412 149 29 64 29 178 0 242 -31 67 -78 114 -146 149 -51 25
-73 30 -133 30 -60 0 -82 -5 -133 -30z"/>
</g>
</svg>
